<?xml version="1.0" encoding="UTF-8"?>
<svg width="68px" height="67px" viewBox="0 0 68 67" version="1.1" xmlns="http://www.w3.org/2000/svg" xmlns:xlink="http://www.w3.org/1999/xlink">
    <title>Group 3</title>
    <g id="Page-1" stroke="none" stroke-width="1" fill="none" fill-rule="evenodd">
        <g id="Hiero-Homepage---R2-Bio" transform="translate(-140.000000, -3783.000000)" fill="#B81A56">
            <g id="Group-3" transform="translate(140.000000, 3783.797600)">
                <path d="M4.2504954,65.9949012 C1.84804148,65.8818413 0,63.8124256 0,61.4071801 L0,4.46656551 C0,1.99990471 1.99962555,0 4.46656551,0 L63.109779,0 C65.5764398,0 67.5763446,1.99990471 67.5763446,4.46656551 L67.5763446,59.9569421 C67.5763446,62.4238821 65.5764398,64.4235076 63.109779,64.4235076 L33.9456187,64.4235076 C31.4789579,64.4235076 29.4790532,62.4238821 29.4790532,59.9569421 L29.4790532,23.3523211 C29.4790532,20.9473548 31.3273738,18.8779391 33.7298278,18.7646 C36.294753,18.6440028 38.4121842,20.6877356 38.4121842,23.2261406 L38.4121842,52.4070506 C38.4121842,54.1099287 39.7926321,55.4903766 41.4955102,55.4903766 L55.5598875,55.4903766 C57.2627656,55.4903766 58.6432135,54.1099287 58.6432135,52.4070506 L58.6432135,12.016457 C58.6432135,10.3135789 57.2627656,8.93313102 55.5598875,8.93313102 L12.016457,8.93313102 C10.3135789,8.93313102 8.93313102,10.3135789 8.93313102,12.016457 L8.93313102,61.5333606 C8.93313102,64.0717656 6.81542065,66.1157776 4.2504954,65.9949012" id="Fill-1"></path>
            </g>
        </g>
    </g>
</svg>