<?xml version="1.0" encoding="UTF-8"?>
<svg id="Layer_2" xmlns="http://www.w3.org/2000/svg" version="1.1" viewBox="0 0 440.4 440.4">
  <!-- Generator: Adobe Illustrator 29.8.2, SVG Export Plug-In . SVG Version: 2.1.1 Build 3)  -->
  <defs>
    <style>
      .st0 {
        fill: #fff;
      }
    </style>
  </defs>
  <g id="ICON">
    <path class="st0" d="M220.2,440.4c-58.8,0-114.1-22.9-155.7-64.5S0,279,0,220.2,22.9,106.1,64.5,64.5C106.1,22.9,161.4,0,220.2,0s114.1,22.9,155.7,64.5c41.6,41.6,64.5,96.9,64.5,155.7s-22.9,114.1-64.5,155.7-96.9,64.5-155.7,64.5ZM220.2,18.9C109.2,18.9,18.9,109.2,18.9,220.2s90.3,201.3,201.3,201.3,201.3-90.3,201.3-201.3S331.2,18.9,220.2,18.9Z"/>
    <path class="st0" d="M212.6,292.2v30.6h17v-30.6c-2.7.9-5.5,1.3-8.5,1.3s-5.8-.5-8.5-1.3h0Z"/>
    <path class="st0" d="M229.6,238.1v-120.2h-17v120.2c-11.5,3.6-19.8,14.4-19.8,27s8.4,23.4,19.8,27c2.7.9,5.5,1.3,8.5,1.3s5.8-.5,8.5-1.3c11.5-3.6,19.8-14.4,19.8-27s-8.4-23.4-19.8-27h0ZM229.6,272.6c-2.1,2.4-5.1,3.9-8.5,3.9s-6.4-1.5-8.5-3.9c-1.8-2-2.8-4.6-2.8-7.5s1.1-5.5,2.8-7.5c2.1-2.4,5.1-3.9,8.5-3.9s6.4,1.5,8.5,3.9c1.8,2,2.8,4.6,2.8,7.5s-1.1,5.5-2.8,7.5h0Z"/>
    <path class="st0" d="M138.2,144.4v-26.5h-17v26.5c-11.5,3.6-19.8,14.4-19.8,27s8.3,23.4,19.8,27v123.5h17v-123.5c11.5-3.6,19.8-14.4,19.8-27s-8.4-23.4-19.8-27h0ZM138.2,178.9c-2.1,2.4-5.1,3.9-8.5,3.9s-6.4-1.5-8.5-3.9c-1.8-2-2.8-4.6-2.8-7.5s1.1-5.5,2.8-7.5c2.1-2.4,5.1-3.9,8.5-3.9s6.4,1.5,8.5,3.9c1.8,2,2.8,4.6,2.8,7.5s-1.1,5.5-2.8,7.5Z"/>
    <path class="st0" d="M319.2,183v-65.4h-17v65.4c-11.5,3.6-19.8,14.4-19.8,27s8.4,23.4,19.8,27v85.7h17v-85.7c11.5-3.6,19.8-14.4,19.8-27s-8.4-23.4-19.8-27h0ZM319.2,217.5c-2.1,2.4-5.1,3.9-8.5,3.9s-6.4-1.5-8.5-3.9c-1.8-2-2.8-4.6-2.8-7.5s1.1-5.5,2.8-7.5c2.1-2.4,5.1-3.9,8.5-3.9s6.4,1.5,8.5,3.9c1.8,2,2.8,4.6,2.8,7.5s-1.1,5.5-2.8,7.5Z"/>
  </g>
</svg>