<?xml version="1.0" encoding="UTF-8"?>
<svg id="Layer_2" xmlns="http://www.w3.org/2000/svg" version="1.1" viewBox="0 0 440.4 440.4">
  <!-- Generator: Adobe Illustrator 29.8.2, SVG Export Plug-In . SVG Version: 2.1.1 Build 3)  -->
  <defs>
    <style>
      .st0 {
        fill: #fff;
      }
    </style>
  </defs>
  <g id="ICON">
    <path class="st0" d="M220.2,358c-6.3,0-12.8-.5-19.1-1.3-32.5-4.5-62.5-20.7-84.3-45.6-22-25.1-34.2-57.3-34.2-90.7s12.1-65.6,34.2-90.7c21.8-24.9,51.8-41.1,84.3-45.6,6.3-.9,12.8-1.3,19.1-1.3s12.8.4,19.1,1.3c32.5,4.5,62.5,20.7,84.3,45.6,22,25.1,34.2,57.3,34.2,90.7s-12.1,65.6-34.2,90.7c-21.8,24.9-51.8,41.1-84.3,45.6-6.3.9-12.8,1.3-19.1,1.3h0ZM229.6,339.2l2.1-1.2c.4-.2.8-.4,1.1-.7,17.1-10.6,31.3-40.4,37.2-77.6l.3-1.6h-40.7v81.1h0ZM170.3,259.7c5.9,37.3,20.1,67,37.2,77.6.1,0,.2.1.4.2l2.3,1.4v-80.9h-40.2l.3,1.6h0ZM109.2,260c10.3,28.8,32,53,59.5,66.4l4.1,2-2.2-3.9c-1.3-2.4-2.6-4.8-3.7-7.2-7.8-16.2-13.6-36.3-16.6-57.9l-.2-1.2h-41.5l.7,1.9h-.1ZM290.1,259.3c-3.1,21.6-8.9,41.6-16.6,57.9-1.2,2.4-2.4,4.9-3.7,7.2l-2.2,3.9,4-2c27.5-13.4,49.2-37.6,59.5-66.4l.7-1.9h-41.5l-.2,1.2h0ZM292.3,202.1c.4,6.2.6,12.3.6,18.3s-.2,11.1-.5,16.8v1.5h44.2l.2-1.2c.8-5.6,1.2-11.4,1.2-17.1s-.5-12.4-1.5-18.6l-.2-1.2h-44.1v1.5h.1,0ZM229.6,238.7h42.8v-1.3c.4-5.6.6-11.4.6-17s-.2-12.3-.6-18.5v-1.3h-42.8v38.1h0ZM168,201.9c-.4,6.2-.6,12.4-.6,18.5s.2,11.4.5,17v1.3h42.4v-38.1h-42.2v1.3h0ZM103.8,201.8c-1,6.2-1.5,12.4-1.5,18.6s.4,11.5,1.2,17.1l.2,1.2h44.3v-1.5c-.4-5.8-.6-11.4-.6-16.8s.2-12.1.6-18.3v-1.5c.1,0-44,0-44,0l-.2,1.2h0ZM269.8,116.3c1.3,2.3,2.6,4.8,3.7,7.2,7.6,15.9,13.3,35.4,16.4,56.4l.2,1.2h41.2l-.7-1.9c-10.6-28.5-31.6-51.5-59-64.9l-4-2,2.2,3.9h0ZM229.6,181.2h40.5l-.3-1.6c-6-36.5-20.1-65.7-37-76.2l-.3-.2-3-.3v78.3h0ZM207.8,103.2l-.3.2c-16.8,10.4-31,39.6-37,76.2l-.3,1.6h40v-78.2l-2.4.2h0ZM168.7,114.4c-27.4,13.3-48.3,36.4-59,64.9l-.7,1.9h41.2l.2-1.2c3.1-21,8.8-40.5,16.4-56.4,1.2-2.4,2.4-4.9,3.7-7.2l2.2-3.9-4.1,2h.1Z"/>
    <path class="st0" d="M220.2,440.4c-58.8,0-114.1-22.9-155.7-64.5S0,279,0,220.2,22.9,106.1,64.5,64.5C106.1,22.9,161.4,0,220.2,0s114.1,22.9,155.7,64.5c41.6,41.6,64.5,96.9,64.5,155.7s-22.9,114.1-64.5,155.7-96.9,64.5-155.7,64.5ZM220.2,18.9C109.2,18.9,18.9,109.2,18.9,220.2s90.3,201.3,201.3,201.3,201.3-90.3,201.3-201.3S331.2,18.9,220.2,18.9Z"/>
  </g>
</svg>