<?xml version="1.0" encoding="UTF-8"?><svg id="Layer_2" xmlns="http://www.w3.org/2000/svg" viewBox="0 0 440.36 440.36"><defs><style>.cls-1{fill:#fff;}</style></defs><g id="CAP"><path class="cls-1" d="M375.87,64.49C334.28,22.9,278.99,0,220.18,0S106.07,22.9,64.49,64.49C22.9,106.07,0,161.37,0,220.18s22.9,114.1,64.49,155.69c41.59,41.59,96.88,64.49,155.69,64.49s114.1-22.9,155.69-64.49c41.59-41.59,64.49-96.88,64.49-155.69s-22.9-114.1-64.49-155.69ZM220.18,421.47c-111,0-201.3-90.3-201.3-201.3S109.18,18.88,220.18,18.88s201.3,90.3,201.3,201.3-90.3,201.3-201.3,201.3Z"/><path class="cls-1" d="M204.64,229.79v-1.33c0-9.94,1.99-13.76,12.6-21.05l11.93-8.29c7.29-5.14,13.09-10.94,13.09-19.89,0-10.28-6.96-17.07-18.56-17.07s-18.73,8.29-18.73,19.56v5.3h-14.75v-5.8c0-19.89,12.93-32.65,33.48-32.65s33.98,11.93,33.98,30.66c0,14.58-7.46,22.87-20.22,31.49l-11.93,8.12c-4.48,3.15-5.64,5.97-5.64,10.94h-15.25ZM202.65,244.71h19.23v23.53h-19.23v-23.53Z"/><path class="cls-1" d="M212.8,368.37l-.91-33.93c-66.71-4.28-119.67-59.92-119.67-127.69s57.4-127.95,127.95-127.95,127.96,57.4,127.96,127.95c0,13.58-2.13,26.97-6.32,39.79-.71,2.58-4.55,14.21-19.57,32.77-21.02,25.96-53.57,53.18-96.74,80.91l-12.69,8.15ZM220.18,95.8c-61.18,0-110.95,49.77-110.95,110.95s49.77,110.95,110.95,110.95h8.28l.53,19.86c83.68-56.47,95.9-93.81,96.42-95.51l.17-.59c3.68-11.18,5.54-22.85,5.54-34.71,0-61.18-49.77-110.95-110.95-110.95Z"/></g></svg>