<?xml version="1.0" encoding="UTF-8"?>
<svg id="Layer_2" xmlns="http://www.w3.org/2000/svg" version="1.1" viewBox="0 0 440.4 440.4">
  <!-- Generator: Adobe Illustrator 29.8.2, SVG Export Plug-In . SVG Version: 2.1.1 Build 3)  -->
  <defs>
    <style>
      .st0 {
        fill: #fff;
      }
    </style>
  </defs>
  <path class="st0" d="M247.7,129.4c22.9,0,41.6,18.6,41.9,41.5,25,1.6,44.9,22.4,44.9,47.9s-21.4,47.9-47.9,47.9h-144.8c-19.9,0-36.1-16.2-36.1-36.1s16.2-36.1,36.1-36.1h7.4c0-23.1,18.8-41.9,41.9-41.9s12.2,1.4,17.6,3.9c6-15.8,21.2-27.1,39.1-27.1M247.7,110.2c-12.6,0-24.8,3.8-35.1,11.1-5.1,3.6-9.5,7.8-13.2,12.6-2.8-.4-5.6-.6-8.4-.6-27.2,0-50.4,17.9-58.2,42.6-26.2,4.3-46.3,27.1-46.3,54.6s24.8,55.3,55.3,55.3h144.8c37,0,67.1-30.1,67.1-67.1s-19.8-55.6-47.2-64.1c-2.8-10-8.2-19.1-15.8-26.7-11.5-11.4-26.8-17.7-43-17.7h0Z"/>
  <path class="st0" d="M220,439.7c-58.8,0-114.1-22.9-155.7-64.5S-.2,278.3-.2,219.5,22.7,105.4,64.3,63.8,161.2-.7,220-.7s114.1,22.9,155.7,64.5,64.5,96.9,64.5,155.7-22.9,114.1-64.5,155.7-96.9,64.5-155.7,64.5ZM220,18.2C109,18.2,18.7,108.5,18.7,219.5s90.3,201.3,201.3,201.3,201.3-90.3,201.3-201.3S331,18.2,220,18.2Z"/>
</svg>