<?xml version="1.0" encoding="UTF-8"?><svg id="Layer_2" xmlns="http://www.w3.org/2000/svg" viewBox="0 0 436.54 436.54"><defs><style>.cls-1{fill:#fff;}</style></defs><g id="ICON"><path class="cls-1" d="M372.61,63.93C331.38,22.7,276.57,0,218.27,0S105.15,22.7,63.93,63.93C22.7,105.15,0,159.97,0,218.27s22.7,113.11,63.93,154.34c41.23,41.23,96.04,63.93,154.34,63.93s113.11-22.7,154.34-63.93c41.23-41.23,63.93-96.04,63.93-154.34s-22.7-113.11-63.93-154.34ZM218.27,417.82c-110.03,0-199.55-89.52-199.55-199.55S108.24,18.72,218.27,18.72s199.55,89.52,199.55,199.55-89.52,199.55-199.55,199.55Z"/><path class="cls-1" d="M218.27,71.51l-115.65,115.65,31.11,31.11-31.11,31.11,115.65,115.65,115.65-115.65-31.11-31.11,31.11-31.11-115.65-115.65ZM218.27,95.56l91.59,91.59-91.59,91.59-91.59-91.59,91.59-91.59ZM309.86,249.38l-91.59,91.59-91.59-91.59,19.09-19.08,72.51,72.51,72.51-72.51,19.09,19.08Z"/></g></svg>