<?xml version="1.0" encoding="UTF-8"?>
<svg id="Layer_2" xmlns="http://www.w3.org/2000/svg" version="1.1" viewBox="0 0 440.4 440.4">
  <!-- Generator: Adobe Illustrator 29.8.2, SVG Export Plug-In . SVG Version: 2.1.1 Build 3)  -->
  <defs>
    <style>
      .st0 {
        fill: #fff;
      }
    </style>
  </defs>
  <path class="st0" d="M251.7,287.4v-18h-60.1c-50.1,0-90.9-40.8-90.9-90.9s40.8-90.9,90.9-90.9,46.2,9.1,63.3,25.6l-14,14c-13.3-12.8-30.7-19.8-49.3-19.8-39.2,0-71.1,31.9-71.1,71.1s31.9,71.1,71.1,71.1h60.1v-18h12.1l27.9,27.9-27.9,27.9h-12.1Z"/>
  <path class="st0" d="M251.5,350.8c-23.8,0-46.2-9.1-63.3-25.6l14-14c13.3,12.8,30.7,19.8,49.3,19.8,39.2,0,71.1-31.9,71.1-71.1s-31.9-71.1-71.1-71.1h-63.9v18h-12.1l-27.9-27.9,27.9-27.9h12.1v18h63.9c50.1,0,90.9,40.8,90.9,90.9s-40.8,90.9-90.9,90.9Z"/>
  <path class="st0" d="M220,439.7c-58.8,0-114.1-22.9-155.7-64.5S-.2,278.3-.2,219.5,22.7,105.4,64.3,63.8,161.2-.7,220-.7s114.1,22.9,155.7,64.5,64.5,96.9,64.5,155.7-22.9,114.1-64.5,155.7-96.9,64.5-155.7,64.5ZM220,18.2C109,18.2,18.7,108.5,18.7,219.5s90.3,201.3,201.3,201.3,201.3-90.3,201.3-201.3S331,18.2,220,18.2Z"/>
</svg>