<?xml version="1.0" encoding="UTF-8"?>
<svg id="Layer_2" xmlns="http://www.w3.org/2000/svg" version="1.1" viewBox="0 0 440.4 440.4">
  <!-- Generator: Adobe Illustrator 29.8.2, SVG Export Plug-In . SVG Version: 2.1.1 Build 3)  -->
  <defs>
    <style>
      .st0 {
        fill: #fff;
      }
    </style>
  </defs>
  <g id="ICON">
    <polygon class="st0" points="210.3 403.4 210.3 350.3 152.7 350.3 152.7 330.4 210.3 330.4 210.3 277.4 230.1 277.4 230.1 330.4 287.7 330.4 287.7 350.3 230.1 350.3 230.1 403.4 210.3 403.4"/>
    <path class="st0" d="M288.9,136.3c-11.2-12.1-25.8-20.2-43.6-23.9l-3-.6,2.5-1.9c10.3-7.8,16.2-19.7,16.2-32.5,0-22.5-18.3-40.8-40.8-40.8s-40.8,18.3-40.8,40.8,6,24.9,16.4,32.7l2.5,1.8-3,.7c-17.3,3.9-31.7,11.9-42.8,23.9-15,16-23.2,38.8-23.2,64.1v57.4h182.1v-57.4c0-26.1-7.7-48.4-22.4-64.2h-.1ZM220.1,56.5c11.6,0,20.9,9.4,20.9,20.9s-9.4,20.9-20.9,20.9-20.9-9.4-20.9-20.9,9.4-20.9,20.9-20.9ZM166.8,150c12.3-13.2,30.8-20.2,53.2-20.2s42.1,6.7,54.3,20c7.5,8.2,12.6,18.7,15.2,31.2h-138.4c2.8-12.2,8.2-22.9,15.7-31h0ZM291.4,238.1h-142.5v-38.1h142.5v38.1Z"/>
    <path class="st0" d="M220.2,440.4c-58.8,0-114.1-22.9-155.7-64.5S0,279,0,220.2,22.9,106.1,64.5,64.5C106.1,22.9,161.4,0,220.2,0s114.1,22.9,155.7,64.5c41.6,41.6,64.5,96.9,64.5,155.7s-22.9,114.1-64.5,155.7-96.9,64.5-155.7,64.5ZM220.2,18.9C109.2,18.9,18.9,109.2,18.9,220.2s90.3,201.3,201.3,201.3,201.3-90.3,201.3-201.3S331.2,18.9,220.2,18.9Z"/>
  </g>
</svg>