<?xml version="1.0" encoding="UTF-8"?>
<svg id="Layer_2" xmlns="http://www.w3.org/2000/svg" version="1.1" viewBox="0 0 448.1 440.5">
  <!-- Generator: Adobe Illustrator 29.8.2, SVG Export Plug-In . SVG Version: 2.1.1 Build 3)  -->
  <defs>
    <style>
      .st0 {
        fill: #fff;
      }
    </style>
  </defs>
  <g id="ICON">
    <path class="st0" d="M224.1,440.5c-59.9,0-116.1-22.9-158.4-64.5S0,279.1,0,220.3,23.3,106.1,65.6,64.5C107.9,22.9,164.2,0,224.1,0s116.1,22.9,158.4,64.5c42.3,41.6,65.6,96.9,65.6,155.7s-23.3,114.1-65.6,155.8-98.6,64.5-158.4,64.5h0ZM224.1,18.9C111.1,18.9,19.2,109.2,19.2,220.3s91.9,201.4,204.9,201.4,204.9-90.3,204.9-201.4S337,18.9,224.1,18.9Z"/>
    <path class="st0" d="M330.7,263.4c0-28-32.4-50.1-74.6-51.4,2.9-5.1,4.5-10.9,4.5-16.9v-32.3h0v-2.2c0-28.9-34.5-51.4-78.6-51.4s-78.6,22.6-78.6,51.4,0,1.5,0,2.2h0v33.4c0,7.6,2.6,15,7.3,20.9,9,11.3,29.2,29.7,66.2,29.7h.7c-2.6,5.2-4.1,10.8-4.1,16.7s0,1.5,0,2.2h0v33.4c0,7.6,2.6,15,7.2,20.9,9,11.3,29.2,29.7,66.2,29.7s3.6,0,5.5-.1c38.3-1.8,59.7-18.6,69-28.4,5.9-6.2,9.1-14.4,9.1-23.1v-32.3h0v-2.2h0l.2-.2ZM313.7,263.4c0,16.6-24.7,34.5-61.5,34.5s-57.1-13.3-61.1-30.3c-.3-1.4-.5-2.8-.5-4.2,0-16.6,24.7-34.4,61.5-34.4s61.5,17.8,61.5,34.4h.1ZM182.1,126.1c36.8,0,61.5,17.8,61.5,34.4s-24.7,34.4-61.5,34.4-57.1-13.3-61.1-30.3c-.3-1.4-.5-2.8-.5-4.2,0-16.6,24.7-34.4,61.5-34.4h.1ZM124.2,206.5c-2.3-2.9-3.6-6.6-3.6-10.3v-3.4c14.4,11.8,36.7,19.2,61.5,19.2s47.3-7.4,61.5-19.1v2.2c0,4.3-1.6,8.3-4.5,11.4-1.1,1.2-5.1,5.1-7.2,7.1-15.3,2.6-28.7,8-38.7,15.4-2.2.2-6.5.4-9.2.5-.9,0-1.7,0-2.3.1-1.6,0-3.1.1-4.6.1-29.9,0-45.9-14.4-53-23.2h0ZM309.2,309.3c-7.6,8-25.1,21.6-57.5,23.1-32.9,1.6-50.2-13.8-57.6-23.1-2.3-2.9-3.6-6.6-3.6-10.3v-3.4c14.4,11.8,36.7,19.2,61.5,19.2s47.3-7.4,61.5-19.1v2.2c0,4.3-1.6,8.3-4.5,11.4h.2Z"/>
  </g>
</svg>