<svg xmlns="http://www.w3.org/2000/svg" id="Layer_2" version="1.1" viewBox="0 0 440.4 440.4">
  <defs>
    <style>
      .st0{fill:#fff}
    </style>
  </defs>
  <g id="ICON">
    <path d="M261.5 190.9h-82.4v-38h-19.2v134.9h19.2v-40.2h82.4v40.2h19.2V152.9h-19.2v38Zm0 37.7h-82.4v-18.4h82.4v18.4Z" class="st0"/>
    <path d="M375.9 64.5C334.3 22.9 279 0 220.2 0S106.1 22.9 64.5 64.5C22.9 106.1 0 161.4 0 220.2s22.9 114.1 64.5 155.7c41.6 41.6 96.9 64.5 155.7 64.5s114.1-22.9 155.7-64.5 64.5-96.9 64.5-155.7-22.9-114.1-64.5-155.7ZM220.6 337.9c-65 0-117.8-52.9-117.8-117.8s52.9-117.8 117.8-117.8 117.8 52.9 117.8 117.8-52.9 117.8-117.8 117.8Zm37.6 20.8-28.5 42.9v-44.2h1.3c4.2-.4 8.5-.9 12.8-1.7h.3l14.2 3h-.1Zm-48.4-1.4v44.9l-28.1-43.4 15.5-3.1h.3c3.6.7 7.4 1.1 11.1 1.5h1.3c0 .1-.1.1-.1.1Zm-93.2-227.2-.8 1c-2.7 3.2-5.4 6.6-7.8 10l-.2.2-12.3 8-10.1-50.5 31.2 31.2ZM98.9 84.4l50.6 10.8-8.4 12.6-.2.2c-3.1 2.2-6.3 4.7-9.3 7.3l-1 .8-31.7-31.7Zm-14 113.1v.2c-.6 3.6-1.1 7.3-1.4 10.9v1.3H38.3l43.4-28.1 3.1 15.6h.1Zm-1.5 32.3v1.3c.4 4 .9 8 1.6 12v.3l-3.2 15-42.9-28.5h44.5ZM95.1 291l13.7 9.1.2.2c2 2.8 4.2 5.6 6.4 8.2l.8 1-32 32L95 291Zm35.1 32.7 1 .9c3 2.6 6.2 5.1 9.4 7.4l.2.2 8.4 13-50.5 10.1 31.5-31.5Zm52-241.7 28.5-42.9v43.7h-1.3c-4.6.5-9.2 1.1-13.8 1.9h-.3l-13.2-2.8h.1Zm48.4.8V38.5l28.1 43.4-13.6 2.7h-.3c-4.2-.8-8.6-1.4-12.9-1.7h-1.3Zm80.3 33.5-1-.8c-3.6-3.1-7.5-6.1-11.5-8.8l-.2-.2-7-10.8 50.5-10.1-30.8 30.8Zm45.2-17.2-10.8 50.5-11.3-7.5v-.2c-2.7-3.6-5.4-7.2-8.3-10.6l-.8-1 31.2-31.2Zm-57 233.9h.2c3.3-2.4 6.5-4.9 9.5-7.5l1-.8 31.5 31.5-50.5-10.8L299 333Zm24.9-22.2.9-1c3-3.5 5.8-7.1 8.5-10.9l.2-.2 11.4-7.4 10.1 50.5-31-31h-.1Zm31.9-65.5v-.3c.8-4.3 1.4-8.6 1.8-13v-1.3H402l-43.4 28.1-2.7-13.5Zm2-34.4v-1.3c-.5-4.8-1.1-9.7-2-14.5v-.3l2.6-12.4 42.9 28.5h-43.5ZM279.5 77.7l-37.3-57.6c39.5 4.3 75.6 20.1 104.9 44l-67.6 13.6Zm-118.2-.2L94.4 63.2C123.9 39.5 160.1 24 199.7 20l-38.3 57.6h-.1ZM77.6 161l-57.5 37.2c4.3-39.5 20.1-75.5 43.9-104.8L77.6 161Zm-.3 118.2L63 345.8C39.5 316.4 24 280.4 19.9 241l57.4 38.2Zm83.5 83.8 37 57.2c-39.3-4.4-75.2-20-104.3-43.7l67.3-13.5Zm118.2.2 66.6 14.3c-29.3 23.5-65.3 38.9-104.7 42.9l38.1-57.2Zm83.8-83.5 57.4-37.1c-4.4 39.3-20.1 75.3-43.9 104.5l-13.5-67.3Zm.2-118.2 14.3-66.9c23.6 29.4 39.1 65.6 43.1 105.1L363 161.5Z" class="st0"/>
  </g>
</svg>
