<?xml version="1.0" encoding="UTF-8"?><svg id="Layer_2" xmlns="http://www.w3.org/2000/svg" viewBox="0 0 440.36 440.36"><g id="ICON"><path d="M220.18,394.36c-96.04,0-174.18-78.14-174.18-174.18S124.14,46,220.18,46s174.18,78.14,174.18,174.18-78.13,174.18-174.18,174.18ZM220.18,65.84c-85.1,0-154.33,69.23-154.33,154.33s69.23,154.34,154.33,154.34,154.33-69.23,154.33-154.33-69.23-154.34-154.33-154.34Z"/><path d="M220.18,440.36c-58.81,0-114.1-22.9-155.69-64.49S0,278.99,0,220.18,22.9,106.08,64.49,64.49,161.37,0,220.18,0s114.1,22.9,155.69,64.49,64.49,96.88,64.49,155.69-22.9,114.1-64.49,155.69-96.88,64.49-155.69,64.49ZM220.18,18.88C109.18,18.88,18.88,109.18,18.88,220.18s90.3,201.3,201.3,201.3,201.3-90.3,201.3-201.3S331.17,18.88,220.18,18.88Z"/><path d="M260,300.03l-16.52-35.96h-99.62l-16.52,35.96h-17.32l74.47-162.11h18.35l74.47,162.11h-17.32ZM151.1,248.33h85.16l-42.58-92.69-42.58,92.69Z"/><rect x="295.57" y="137.91" width="15.74" height="162.11"/></g></svg>