<?xml version="1.0" encoding="UTF-8"?><svg id="Layer_2" xmlns="http://www.w3.org/2000/svg" viewBox="0 0 440.36 440.36"><defs><style>.cls-1{fill:#fff;}</style></defs><g id="CAP"><path class="cls-1" d="M375.87,64.49C334.28,22.9,278.99,0,220.18,0S106.07,22.9,64.49,64.49C22.9,106.07,0,161.37,0,220.18s22.9,114.1,64.49,155.69c41.59,41.59,96.88,64.49,155.69,64.49s114.1-22.9,155.69-64.49c41.59-41.59,64.49-96.88,64.49-155.69s-22.9-114.1-64.49-155.69ZM220.18,421.47c-111,0-201.3-90.3-201.3-201.3S109.18,18.88,220.18,18.88s201.3,90.3,201.3,201.3-90.3,201.3-201.3,201.3Z"/><polygon class="cls-1" points="213.14 226.67 196.2 209.73 184.17 221.75 213.14 250.72 256.18 207.68 244.16 195.65 213.14 226.67"/><path class="cls-1" d="M296.72,211.67c-3.95-35.76-32.47-64.22-68.26-68.07v-60.57h-17.01v60.62c-35.59,4.03-63.89,32.4-67.82,68.01h-60.81v17.01h60.81c3.94,35.69,32.35,64.1,68.04,68.04v60.6h17.01v-60.6c35.69-3.94,64.1-32.35,68.04-68.04h60.37v-17.01h-60.37ZM220.18,280.2c-33.09,0-60.02-26.92-60.02-60.02s26.92-60.02,60.02-60.02,60.02,26.92,60.02,60.02-26.92,60.02-60.02,60.02Z"/><path class="cls-1" d="M175.77,136.36l-39.23-39.23-39.23,39.23,39.23,39.23,39.23-39.23ZM136.54,121.17l15.18,15.18-15.18,15.18-15.18-15.18,15.18-15.18Z"/><path class="cls-1" d="M264.95,304l39.23,39.23,39.23-39.23-39.23-39.23-39.23,39.23ZM304.19,319.18l-15.18-15.18,15.18-15.18,15.18,15.18-15.18,15.18Z"/><path class="cls-1" d="M342.61,136.36l-39.23-39.23-39.23,39.23,39.23,39.23,39.23-39.23ZM303.38,121.17l15.18,15.18-15.18,15.18-15.18-15.18,15.18-15.18Z"/><path class="cls-1" d="M97.31,304l39.23,39.23,39.23-39.23-39.23-39.23-39.23,39.23ZM136.54,319.18l-15.18-15.18,15.18-15.18,15.18,15.18-15.18,15.18Z"/></g></svg>