<?xml version="1.0" encoding="UTF-8"?>
<svg id="Layer_2" xmlns="http://www.w3.org/2000/svg" version="1.1" viewBox="0 0 440.4 440.4">
  <!-- Generator: Adobe Illustrator 29.8.2, SVG Export Plug-In . SVG Version: 2.1.1 Build 3)  -->
  <defs>
    <style>
      .st0 {
        fill: #fff;
      }
    </style>
  </defs>
  <g id="ICON">
    <rect class="st0" x="242.7" y="181.2" width="24.6" height="19.4"/>
    <rect class="st0" x="173.4" y="238" width="93.8" height="20.2"/>
    <path class="st0" d="M129.6,322.1v-142.3l61.8-62.1h119.1v204.4h-180.9ZM148.9,302.8h142.4v-165.1h-71.2v62.7h-71.2v102.4h0ZM200.5,181.2v-43.6l-43.6,43.6h43.6Z"/>
    <path class="st0" d="M220.2,440.4c-58.8,0-114.1-22.9-155.7-64.5S0,279,0,220.2,22.9,106.1,64.5,64.5C106.1,22.9,161.4,0,220.2,0s114.1,22.9,155.7,64.5c41.6,41.6,64.5,96.9,64.5,155.7s-22.9,114.1-64.5,155.7-96.9,64.5-155.7,64.5ZM220.2,18.9C109.2,18.9,18.9,109.2,18.9,220.2s90.3,201.3,201.3,201.3,201.3-90.3,201.3-201.3S331.2,18.9,220.2,18.9Z"/>
  </g>
</svg>