<?xml version="1.0" encoding="UTF-8"?>
<svg id="Layer_2" xmlns="http://www.w3.org/2000/svg" version="1.1" viewBox="0 0 440.4 440.4">
  <!-- Generator: Adobe Illustrator 29.8.2, SVG Export Plug-In . SVG Version: 2.1.1 Build 3)  -->
  <defs>
    <style>
      .st0 {
        fill: #fff;
      }
    </style>
  </defs>
  <g id="ICON">
    <path class="st0" d="M242.4,266.3v-17.2h-44.4v17.2h-19.2v-91.9h19.2v16h44.4v-16h19.2v91.9h-19.2ZM198,230.1h44.4v-20.4h-44.4v20.4Z"/>
    <path class="st0" d="M219.5,390.8h-4.3c-1.1,0-2.1-.1-3.2-.1h-.8c-1.1,0-2.3-.2-3.4-.2h-.2c-40.4-3-78.6-20.4-107.6-49.1-28.9-28.7-46.6-66.8-49.9-107.2h0v-1.4c-.2-1-.2-1.9-.3-2.9v-1.3c0-1-.2-2-.2-3.1v-10.2c0-1.1,0-2.1,0-3.2v-.7c0-1.1.2-2.3.2-3.4v-.2c3-40.4,20.4-78.6,49.1-107.6,28.7-28.9,66.8-46.6,107.2-49.9h1.4c1-.2,1.9-.2,2.9-.3h1.3c1,0,2.1-.2,3.1-.2h10.1c1.1,0,2.2,0,3.2,0h.7c1.1,0,2.3.2,3.4.2h.1c40.4,3,78.6,20.4,107.6,49.1,28.9,28.7,46.6,66.8,49.9,107.2h0v1.4c.2,1,.2,1.9.3,2.9v1.3c.1,1,.2,2,.2,3.1v10.2c0,1.1-.1,2.1-.1,3.2v.7c0,1.1-.2,2.3-.2,3.4v.2c-3,40.4-20.4,78.6-49.1,107.6-28.7,28.9-66.8,46.6-107.1,49.9h-1.5c-1,.1-1.9.2-2.9.3h-1.3c-1,0-2,0-3.1.1h-5.9.3ZM164.8,305.6c2.9,9,6.2,17.4,9.9,25,10.3,21.3,23.3,35.5,36.6,40h.4c2.9.2,5.8.2,8.5.2s6.3-.1,9.6-.3h.4c13.3-4.7,26.2-19.1,36.3-40.4,3.6-7.6,6.9-16.1,9.7-25.1l.7-2.2-2.3.4c-17.4,2.9-35.6,4.5-54.1,4.5h-1.3c-18.1,0-35.8-1.4-52.8-4.1l-2.3-.4.7,2.2h0v.2ZM79.8,275.1c15.5,39.5,47.1,70.9,86.7,86.1l4.3,1.6-2.6-3.8c-4.1-5.9-7.9-12.5-11.4-19.7-5.7-11.8-10.5-25.1-14.3-39.6l-.2-.8-.8-.2c-14.5-3.7-27.9-8.4-39.7-14-7.2-3.4-13.9-7.2-19.8-11.2l-3.8-2.6,1.7,4.3h0ZM358.8,272.4c-5.9,4.1-12.5,7.9-19.7,11.4-11.8,5.7-25.1,10.5-39.6,14.3l-.8.2-.2.8c-3.7,14.5-8.4,27.9-14,39.7-3.4,7.2-7.2,13.9-11.2,19.8l-2.6,3.8,4.3-1.7c39.5-15.5,70.9-47.1,86.1-86.7l1.6-4.3-3.8,2.6h0ZM219.9,152.6c-21.1,0-41.6,2.1-60.7,6.1l-.9.2-.2.9c-3.8,19.2-5.7,39.6-5.6,60.8s2.1,41.6,6.1,60.7l.2.9.9.2c18.8,3.7,38.8,5.6,59.5,5.6h1.2c21.1,0,41.6-2.1,60.7-6.1l.9-.2.2-.9c3.8-19.2,5.7-39.6,5.6-60.8,0-21.1-2.1-41.6-6.1-60.7l-.2-.9-.9-.2c-18.8-3.7-38.8-5.6-59.5-5.6h-1.2ZM134.9,165c-9,2.9-17.4,6.2-25,9.9-21.3,10.3-35.5,23.3-40,36.6v.4c-.2,2.9-.3,5.8-.3,8.5s0,6.3.3,9.6v.4c4.7,13.3,19.1,26.2,40.4,36.3,7.6,3.6,16.1,6.9,25.1,9.7l2.2.7-.4-2.3c-2.9-17.4-4.4-35.6-4.5-54.1s1.3-36.7,4.1-54.1l.4-2.3-2.2.7h-.1ZM303.2,166c2.9,17.4,4.5,35.6,4.5,54.1s-1.3,36.7-4.1,54.1l-.4,2.3,2.2-.7c9-2.9,17.4-6.2,25-9.9,21.3-10.3,35.5-23.3,40-36.6v-.4c.2-2.9.3-5.8.3-8.5s-.1-6.3-.3-9.6v-.4c-4.7-13.3-19.1-26.2-40.4-36.3-7.6-3.6-16.1-6.9-25.1-9.7l-2.2-.7.4,2.3h.1ZM165.5,80c-39.5,15.5-70.9,47.1-86.1,86.7l-1.6,4.3,3.8-2.6c5.9-4.1,12.5-7.9,19.7-11.4,11.8-5.7,25.1-10.5,39.6-14.3l.8-.2.2-.8c3.7-14.5,8.4-27.9,14.1-39.7,3.4-7.2,7.2-13.9,11.2-19.8l2.6-3.8-4.3,1.7h0ZM272.2,81.7c4.1,5.9,7.9,12.5,11.4,19.7,5.7,11.8,10.5,25.1,14.3,39.6l.2.8.8.2c14.5,3.7,27.9,8.4,39.7,14.1,7.2,3.4,13.9,7.2,19.8,11.2l3.8,2.6-1.7-4.3c-15.5-39.5-47.1-70.9-86.7-86.1l-4.3-1.6,2.6,3.8h.1ZM220.2,69.7c-3.1,0-6.3,0-9.6.3h-.4c-13.3,4.7-26.2,19.1-36.3,40.4-3.6,7.6-6.9,16.1-9.7,25.1l-.7,2.2,2.3-.4c17.4-2.9,35.6-4.4,54.1-4.5h1.3c18.1,0,35.8,1.4,52.8,4.1l2.3.4-.7-2.2c-2.9-9-6.2-17.4-9.9-25-10.3-21.3-23.3-35.5-36.6-40h-.4c-2.9-.2-5.8-.2-8.5-.2h0v-.2Z"/>
    <path class="st0" d="M220.2,440.4c-58.8,0-114.1-22.9-155.7-64.5S0,279,0,220.2,22.9,106.1,64.5,64.5C106.1,22.9,161.4,0,220.2,0s114.1,22.9,155.7,64.5c41.6,41.6,64.5,96.9,64.5,155.7s-22.9,114.1-64.5,155.7-96.9,64.5-155.7,64.5ZM220.2,18.9C109.2,18.9,18.9,109.2,18.9,220.2s90.3,201.3,201.3,201.3,201.3-90.3,201.3-201.3S331.2,18.9,220.2,18.9Z"/>
  </g>
</svg>