<?xml version="1.0" encoding="UTF-8"?><svg id="Layer_2" xmlns="http://www.w3.org/2000/svg" viewBox="0 0 440.36 440.36"><defs><style>.cls-1{fill:#fff;}</style></defs><g id="CAP"><path class="cls-1" d="M274.14,239.76c-8.77-9.53-20.3-15.85-34.29-18.78l-2.39-.5,1.94-1.48c8.08-6.13,12.71-15.44,12.71-25.53,0-17.67-14.37-32.04-32.04-32.04s-32.04,14.37-32.04,32.04c0,10.18,4.69,19.54,12.88,25.67l1.93,1.45-2.35.53c-13.59,3.06-24.91,9.37-33.66,18.74-11.75,12.59-18.23,30.48-18.23,50.37v45.08h143.1v-45.08c0-20.53-6.07-37.99-17.56-50.47ZM220.07,177.02c9.07,0,16.45,7.38,16.45,16.45s-7.38,16.45-16.45,16.45-16.45-7.38-16.45-16.45,7.38-16.45,16.45-16.45ZM178.22,250.5c9.7-10.39,24.16-15.88,41.81-15.88,18.71,0,33.05,5.28,42.64,15.69,5.9,6.41,9.92,14.67,11.95,24.55h-108.75c2.17-9.6,6.43-18.02,12.36-24.37ZM276.12,319.72h-111.93v-29.93h111.93v29.93Z"/><path class="cls-1" d="M148.57,153.54c9.07,0,16.45-7.38,16.45-16.45s-7.38-16.45-16.45-16.45-16.45,7.38-16.45,16.45,7.38,16.45,16.45,16.45Z"/><path class="cls-1" d="M291.63,120.63c-9.07,0-16.45,7.38-16.45,16.45s7.38,16.45,16.45,16.45,16.45-7.38,16.45-16.45-7.38-16.45-16.45-16.45Z"/><path class="cls-1" d="M363.26,233.85c0-20.53-6.07-37.99-17.56-50.47-8.77-9.53-20.3-15.85-34.29-18.78l-2.39-.5,1.94-1.48c8.08-6.13,12.71-15.44,12.71-25.53,0-17.67-14.37-32.04-32.04-32.04s-32.04,14.37-32.04,32.04c0,10.18,4.69,19.54,12.88,25.67l1.93,1.45-2.35.53c-3.88.88-7.57,2.02-11.08,3.42,1.6,4.52,2.49,9.39,2.49,14.46,0,.52-.03,1.03-.05,1.54,8-3.89,17.5-5.91,28.18-5.91,18.71,0,33.05,5.28,42.64,15.69,5.9,6.41,9.92,14.67,11.95,24.55h-66.35c.91.89,1.8,1.8,2.67,2.74,3.42,3.72,6.42,7.79,9.01,12.18h56.17v29.94h-45.82c.76,5,1.17,10.21,1.19,15.59h60.22v-45.08ZM291.63,153.54c-9.07,0-16.45-7.38-16.45-16.45s7.38-16.45,16.45-16.45,16.45,7.38,16.45,16.45-7.38,16.45-16.45,16.45Z"/><path class="cls-1" d="M92.69,263.34v-29.94h56.7c2.65-4.38,5.7-8.45,9.15-12.14.89-.96,1.81-1.88,2.75-2.78h-66.92c2.17-9.6,6.43-18.02,12.36-24.37,9.7-10.39,24.16-15.88,41.81-15.88,10.91,0,20.33,1.81,28.19,5.37,0-.33-.03-.67-.03-1,0-5.21.92-10.2,2.61-14.83-3.47-1.31-7.11-2.38-10.96-3.19l-2.39-.5,1.94-1.48c8.08-6.13,12.71-15.44,12.71-25.53,0-17.67-14.37-32.04-32.04-32.04s-32.04,14.37-32.04,32.04c0,10.18,4.69,19.54,12.88,25.67l1.93,1.45-2.35.53c-13.59,3.06-24.91,9.37-33.66,18.74-11.75,12.59-18.23,30.48-18.23,50.37v45.08h60.17c.02-5.33.46-10.54,1.3-15.59h-45.88ZM148.57,120.63c9.07,0,16.45,7.38,16.45,16.45s-7.38,16.45-16.45,16.45-16.45-7.38-16.45-16.45,7.38-16.45,16.45-16.45Z"/><path class="cls-1" d="M375.87,64.49C334.28,22.9,278.99,0,220.18,0S106.07,22.9,64.49,64.49C22.9,106.07,0,161.37,0,220.18s22.9,114.1,64.49,155.69c41.59,41.59,96.88,64.49,155.69,64.49s114.1-22.9,155.69-64.49c41.59-41.59,64.49-96.88,64.49-155.69s-22.9-114.1-64.49-155.69ZM220.18,421.47c-111,0-201.3-90.3-201.3-201.3S109.18,18.88,220.18,18.88s201.3,90.3,201.3,201.3-90.3,201.3-201.3,201.3Z"/></g></svg>