<?xml version="1.0" encoding="UTF-8"?><svg id="Layer_2" xmlns="http://www.w3.org/2000/svg" viewBox="0 0 440.36 440.36"><defs><style>.cls-1{fill:#fff;}</style></defs><g id="ICON"><path class="cls-1" d="M375.87,64.49C334.28,22.9,278.99,0,220.18,0S106.07,22.9,64.49,64.49C22.9,106.07,0,161.37,0,220.18s22.9,114.1,64.49,155.69c41.59,41.59,96.88,64.49,155.69,64.49s114.1-22.9,155.69-64.49c41.59-41.59,64.49-96.88,64.49-155.69s-22.9-114.1-64.49-155.69ZM220.18,421.47c-111,0-201.3-90.3-201.3-201.3S109.18,18.88,220.18,18.88s201.3,90.3,201.3,201.3-90.3,201.3-201.3,201.3Z"/><path class="cls-1" d="M101.64,117.97v204.42h237.08V117.97H101.64ZM321.71,180.11h-21.92v-45.13h21.92v45.13ZM237.08,240.35v-43.23h83.94v43.23h-83.94ZM118.65,134.97h164.14v45.13h-62.71v77.25h62.71v48.03H118.65v-170.41ZM299.79,305.38v-48.03h21.92v48.03h-21.92Z"/></g></svg>