<svg xmlns="http://www.w3.org/2000/svg" id="Layer_2" version="1.1" viewBox="0 0 440.4 440.4">
  <defs>
    <style>
      .st0{fill:#fff}
    </style>
  </defs>
  <g id="ICON">
    <path d="M219.4 358h-7.8c-.3-.1-.6-.1-.9-.1h-.4c-3-.2-6.1-.6-9.1-1h-.3c-60.1-8.5-108-56.4-116.7-116.4v-.2s-.4-.6-.4-.7c-.4-3-.7-6.1-.9-9.1v-.4c0-1.3-.2-2.6-.2-3.9v-10.8c0-1.3.2-2.6.2-3.9v-.4c.2-3 .6-6.1 1-9.1l.4-.7v-.2C93 141.1 141 93.2 201 84.7h.3c3-.4 6.1-.7 9.1-.9h10c75.9 0 137.6 61.7 137.6 137.6S296.3 359 220.4 359h-.9v-.9Zm-41.5-66.1c7.4 22 17.8 38.1 29.4 45.4l.3.2h.3c4.1.5 8.3.7 12.4.7s7.9-.2 11.8-.6h.3l.3-.2c11.6-7.2 22.1-23.3 29.5-45.5l.7-2.2-2.3.3c-13.1 2-26.8 3-40.6 3s-27.5-1-40.6-3l-2.3-.3.7 2.2Zm146.5-22.2c-2.5 1.4-5 2.7-7.6 3.9-9.3 4.5-19.8 8.2-31.2 11.3l-.8.2-.2.8c-3 11.4-6.8 21.9-11.3 31.2-1.2 2.5-2.5 5-3.8 7.4l-2.2 3.9 4-2c23.9-11.5 43.4-31 55-54.9l2-4.1-3.9 2.2Zm-210 2.3c11.5 23.4 30.7 42.6 54.1 54.1l4.1 2-2.2-4c-1.2-2.2-2.5-4.6-3.6-7-4.4-9.3-8.2-19.8-11.3-31.2l-.2-.8-.8-.2c-11.4-3-21.9-6.8-31.2-11.3-2.3-1.1-4.6-2.3-6.8-3.5l-3.9-2.2 2 4h-.2Zm105.7-104.5c-16.5 0-32.4 1.5-47.3 4.4l-.9.2-.2.9c-2.9 14.9-4.4 30.9-4.4 47.3s1.5 32.4 4.4 47.4l.2.9.9.2c14.9 2.9 30.9 4.4 47.4 4.4s32.4-1.5 47.4-4.4l.9-.2.2-.9c2.9-14.9 4.4-30.9 4.4-47.4s-1.5-32.4-4.4-47.4l-.2-.9-.9-.2c-14.9-2.9-30.9-4.4-47.4-4.4h-.1Zm-71.6 10.7c-21.7 7.3-37.7 17.6-45.1 29l-.2.3v.3c-.5 4.2-.7 8.4-.7 12.6s.2 8.4.7 12.6v.3l.2.3c7.4 11.4 23.4 21.7 45.1 29l2.2.7-.3-2.3c-2-13.1-3-26.8-3-40.6s1-27.5 3-40.6l.3-2.3-2.2.7Zm141.3 1.6c2 13.1 3 26.8 3 40.6s-1 27.5-3 40.6l-.3 2.3 2.2-.7c22.1-7.4 38.8-18.4 45.7-30l.2-.3v-.3a112.658 112.658 0 0 0 0-23.2v-.3l-.2-.3c-6.9-11.6-23.6-22.6-45.7-30l-2.2-.7.3 2.3Zm-20.3-63.6c1.3 2.4 2.6 4.9 3.8 7.4 4.5 9.3 8.2 19.8 11.3 31.2l.2.8.8.2c11.4 3 21.9 6.8 31.2 11.3 2.5 1.2 5.1 2.5 7.6 3.9l3.9 2.2-2-4.1c-11.6-23.9-31.1-43.4-55-54.9l-4-1.9 2.2 3.9Zm-101-1.6c-23.4 11.5-42.6 30.7-54.1 54.1l-2 4 3.9-2.2c2.2-1.2 4.5-2.4 6.8-3.5 9.3-4.5 19.8-8.2 31.2-11.3l.8-.2.2-.8c3-11.4 6.8-21.9 11.3-31.2 1.2-2.4 2.4-4.8 3.6-7l2.2-4-4.1 2h.2Zm51.6 33.1c13.8 0 27.5 1 40.6 3l2.3.3-.7-2.2c-7.4-22.1-17.9-38.2-29.5-45.4l-.3-.2h-.3c-3.9-.4-7.9-.6-11.8-.6s-8.3.2-12.4.7h-.3l-.3.2c-11.6 7.2-22 23.3-29.4 45.4l-.7 2.2 2.3-.3c13.1-2 26.8-3 40.6-3Z" class="st0"/>
    <path d="M220.2 440.4c-58.8 0-114.1-22.9-155.7-64.5S0 279 0 220.2 22.9 106.1 64.5 64.5C106.1 22.9 161.4 0 220.2 0s114.1 22.9 155.7 64.5c41.6 41.6 64.5 96.9 64.5 155.7s-22.9 114.1-64.5 155.7-96.9 64.5-155.7 64.5Zm0-421.5c-111 0-201.3 90.3-201.3 201.3s90.3 201.3 201.3 201.3 201.3-90.3 201.3-201.3S331.2 18.9 220.2 18.9Z" class="st0"/>
  </g>
</svg>
