<?xml version="1.0" encoding="UTF-8"?>
<svg id="Layer_2" xmlns="http://www.w3.org/2000/svg" version="1.1" viewBox="0 0 440.4 440.4">
  <!-- Generator: Adobe Illustrator 29.8.2, SVG Export Plug-In . SVG Version: 2.1.1 Build 3)  -->
  <defs>
    <style>
      .st0 {
        fill: #fff;
      }
    </style>
  </defs>
  <g id="ICON">
    <path class="st0" d="M220.2,394.4c-96,0-174.2-78.1-174.2-174.2S124.1,46,220.2,46s174.2,78.1,174.2,174.2-78.1,174.2-174.2,174.2ZM220.2,65.8c-85.1,0-154.3,69.2-154.3,154.3s69.2,154.3,154.3,154.3,154.3-69.2,154.3-154.3-69.2-154.3-154.3-154.3h0Z"/>
    <path class="st0" d="M220.2,440.4c-58.8,0-114.1-22.9-155.7-64.5S0,279,0,220.2,22.9,106.1,64.5,64.5C106.1,22.9,161.4,0,220.2,0s114.1,22.9,155.7,64.5c41.6,41.6,64.5,96.9,64.5,155.7s-22.9,114.1-64.5,155.7-96.9,64.5-155.7,64.5ZM220.2,18.9C109.2,18.9,18.9,109.2,18.9,220.2s90.3,201.3,201.3,201.3,201.3-90.3,201.3-201.3S331.2,18.9,220.2,18.9Z"/>
    <path class="st0" d="M260,300l-16.5-36h-99.6l-16.5,36h-17.3l74.5-162.1h18.4l74.5,162.1h-17.5ZM151.1,248.3h85.2l-42.6-92.7-42.6,92.7Z"/>
    <rect class="st0" x="295.6" y="137.9" width="15.7" height="162.1"/>
  </g>
</svg>