<svg xmlns="http://www.w3.org/2000/svg" viewBox="0 0 448.29 138.93"><defs><style>.cls-1{fill:#fff;}</style></defs><g id="Layer_2" data-name="Layer 2"><g id="Layer_2-2" data-name="Layer 2"><rect class="cls-1" x="52.08" y="64.51" width="35.53" height="8.85"></rect><path class="cls-1" d="M69.46,0a69.47,69.47,0,1,0,69.47,69.47A69.46,69.46,0,0,0,69.46,0ZM95.29,96.94H87.23V79.79H51.7V96.94H43.63V41.32H51.7V58.08H87.23V41.32h8.06Z"></path><polygon class="cls-1" points="208.06 66.09 177.14 66.09 177.14 43.77 169.31 43.77 169.31 96.18 177.14 96.18 177.14 73.42 208.06 73.42 208.06 96.18 215.89 96.18 215.89 43.77 208.06 43.77 208.06 66.09"></polygon><path class="cls-1" d="M243,65.06c5.13,0,8.73,2.64,10.44,7.65h-21c1.48-4.87,5.32-7.65,10.6-7.65m0-6.46c-10.62,0-18.64,8.27-18.64,19.22a18.85,18.85,0,0,0,19.3,19.23c12.64,0,17.06-8.48,17.62-11.45l.08-.46h-7.26l-.11.22c-.09.19-2.48,4.8-10.33,4.8-6.46,0-11.26-4.56-11.8-11.14H261.7v-.4c0-11.79-7.7-20-18.72-20"></path><path class="cls-1" d="M286.82,90.16c-6.91,0-11.74-5.08-11.74-12.33s4.83-12.34,11.74-12.34,11.61,5.07,11.61,12.34-4.77,12.33-11.61,12.33m11.46-25.73c-1.81-2.5-5.94-5.83-12.69-5.83-10.68,0-18.13,7.91-18.13,19.23s7.45,19.22,18.13,19.22a15.26,15.26,0,0,0,12.69-6.12v5.25h7.4V41.88h-7.4Z"></path><path class="cls-1" d="M333.07,65.06c5.12,0,8.73,2.64,10.43,7.65h-21c1.48-4.87,5.32-7.65,10.61-7.65m0-6.46c-10.63,0-18.65,8.27-18.65,19.22a18.85,18.85,0,0,0,19.3,19.23c12.64,0,17.06-8.48,17.62-11.45l.08-.46h-7.26l-.1.22c-.1.19-2.5,4.8-10.34,4.8-6.46,0-11.25-4.56-11.79-11.14h29.85v-.4c0-11.79-7.7-20-18.71-20"></path><path class="cls-1" d="M367.56,64.81V59.47h-7.41v36.7h7.41V75.5c0-6.42,3.35-8.92,12-8.92h9.56v-7.4h-9.41c-7.33,0-10.66,3.25-12.11,5.63"></path><path class="cls-1" d="M422,77.82c0,7.15-4.73,12.34-11.24,12.34-6.79,0-11.53-5.07-11.53-12.34S404,65.49,410.79,65.49c6.51,0,11.24,5.19,11.24,12.33m-.15-13.37c-1.45-2-5.14-5.85-12.33-5.85-8.9,0-17.91,6.6-17.91,19.22,0,11.32,7.36,19.23,17.91,19.23A14.44,14.44,0,0,0,421.88,91v5.21h7.4V59.47h-7.4Z"></path><polygon class="cls-1" points="436.45 60.56 438.48 60.56 438.48 65.15 439.24 65.15 439.24 60.56 441.27 60.56 441.27 59.86 436.45 59.86 436.45 60.56"></polygon><polygon class="cls-1" points="447.12 59.86 445.37 64.04 443.62 59.86 442.43 59.86 442.43 65.15 443.15 65.15 443.15 60.56 445.09 65.18 445.61 65.18 447.53 60.6 447.53 65.15 448.29 65.15 448.29 59.86 447.12 59.86"></polygon></g></g></svg>
