<?xml version="1.0" encoding="UTF-8"?><svg id="Layer_2" xmlns="http://www.w3.org/2000/svg" viewBox="0 0 654.62 141.73"><defs><style>.cls-1{fill:#222;stroke-width:0px;}</style></defs><g id="Layer_1-2"><polygon class="cls-1" points="83.02 60.62 62.26 60.62 58.92 81.11 79.68 81.11 83.02 60.62"/><path class="cls-1" d="M40.92,81.11l3.34-20.5h-7.25c-4.91,0-8.88-3.98-8.88-8.89s3.98-8.89,8.88-8.89h10.15L53.79,2.05C22.9,9.7,0,37.6,0,70.86c0,3.48.26,6.9.75,10.25h40.17Z"/><path class="cls-1" d="M65.15,42.84h20.76l.56-3.45c.79-4.84,5.35-8.13,10.2-7.34,4.84.79,8.13,5.36,7.34,10.2l-.1.59h32.06C125.27,17.99,100.77.5,72.13,0l-6.98,42.84Z"/><path class="cls-1" d="M101.02,60.62l-3.34,20.5h7.68c4.91,0,8.88,3.98,8.88,8.89s-3.98,8.89-8.88,8.89h-10.57l-6.63,40.74c30.78-7.72,53.58-35.57,53.58-68.76,0-3.48-.26-6.9-.75-10.25h-39.97Z"/><path class="cls-1" d="M76.78,98.89h-20.76l-.77,4.7c-.71,4.36-4.48,7.46-8.76,7.46-.48,0-.96-.04-1.44-.12-4.84-.79-8.13-5.36-7.34-10.2l.3-1.84H5.76c10.73,24.91,35.31,42.42,64.04,42.84l6.98-42.84Z"/><path class="cls-1" d="M232.19,73.88h-34.71v26.43h-11.93v-63.19h11.93v26.08h34.71v-26.08h12.02v63.19h-12.02v-26.43Z"/><path class="cls-1" d="M273.13,101.29c-11.57,0-21.18-8.72-21.18-23.5s9.61-23.5,21.27-23.5c9.52,0,14.06,5.87,15.04,7.74v-6.76h11.39v45.04h-11.3v-7.12c-.89,1.87-5.34,8.1-15.22,8.1ZM276.16,64.26c-7.65,0-12.64,5.87-12.64,13.53s4.98,13.53,12.64,13.53,12.28-5.87,12.28-13.53-4.9-13.53-12.28-13.53Z"/><path class="cls-1" d="M322.8,81.89c-9.88-.8-16.55-5.25-16.55-14.06s7.74-13.8,19.85-13.8c16.11,0,21,8.37,22.07,12.73h-12.02c-.71-.98-3.47-4.09-10.15-4.09-5.43,0-8.28,1.87-8.28,4.54,0,2.49,1.87,4.18,6.41,4.72l7.65.8c12.19,1.07,17.18,5.79,17.18,14.6s-7.12,14.24-20.83,14.24c-16.73,0-22.16-9.7-23.05-13.88h12.19c.44,1.07,3.2,5.07,10.86,5.07,6.23,0,9.26-2.14,9.26-4.98s-1.6-4.54-6.68-5.07c-3.2-.27-4.81-.44-7.92-.8Z"/><path class="cls-1" d="M366.42,100.31h-11.3V34.8h11.3v28.04c1.69-3.2,6.76-8.54,14.95-8.54,11.3,0,18.78,8.28,18.78,19.76v26.26h-11.48v-24.03c0-7.12-4.27-11.84-10.95-11.84s-11.3,4.9-11.3,11.84v24.03Z"/><path class="cls-1" d="M427.47,101.11c-11.75,0-21.45-8.81-21.45-23.41s9.7-23.41,21.45-23.41c9.7,0,14.51,6.05,15.4,7.83v-6.85h11.39v44.06c0,12.37-7.92,21-24.21,21-17.36,0-22.96-10.77-23.67-14.06h13.08c.62.89,3.29,4.63,10.59,4.63,8.19,0,12.91-4.27,12.91-11.75v-6.23c-.98,1.96-5.7,8.19-15.49,8.19ZM430.41,64.26c-7.83,0-12.82,5.79-12.82,13.44s4.98,13.44,12.82,13.44,12.64-5.96,12.64-13.44-4.98-13.44-12.64-13.44Z"/><path class="cls-1" d="M473.14,100.31h-11.3v-45.04h11.3v7.57c1.16-2.58,4.63-7.83,14.6-7.83h10.5v11.3h-12.02c-9.61,0-13.08,3.2-13.08,10.32v23.68Z"/><path class="cls-1" d="M520.84,101.29c-11.57,0-21.18-8.72-21.18-23.5s9.61-23.5,21.27-23.5c9.52,0,14.06,5.87,15.04,7.74v-6.76h11.39v45.04h-11.3v-7.12c-.89,1.87-5.34,8.1-15.22,8.1ZM523.87,64.26c-7.65,0-12.64,5.87-12.64,13.53s4.98,13.53,12.64,13.53,12.28-5.87,12.28-13.53-4.9-13.53-12.28-13.53Z"/><path class="cls-1" d="M566.15,119.18h-11.21v-63.91h11.3v7.12c.8-1.69,5.7-8.1,15.49-8.1,11.75,0,21.36,8.81,21.36,23.5s-9.61,23.5-21.36,23.5c-9.79,0-14.69-6.05-15.58-7.83v25.72ZM578.79,91.32c7.83,0,12.82-5.87,12.82-13.53s-4.98-13.53-12.82-13.53-12.73,5.79-12.73,13.53,4.98,13.53,12.73,13.53Z"/><path class="cls-1" d="M620.89,100.31h-11.3V34.8h11.3v28.04c1.69-3.2,6.76-8.54,14.95-8.54,11.3,0,18.78,8.28,18.78,19.76v26.26h-11.48v-24.03c0-7.12-4.27-11.84-10.95-11.84s-11.3,4.9-11.3,11.84v24.03Z"/></g></svg>