<svg xmlns="http://www.w3.org/2000/svg" viewBox="0 0 440.36 440.36">
  <g fill="#fff">
    <polygon points="213.14 226.67 196.2 209.73 184.17 221.75 213.14 250.72 256.18 207.68 244.16 195.65 213.14 226.67"/>
    <path d="M296.72,211.67c-3.95-35.76-32.47-64.22-68.26-68.07v-60.57h-17.01v60.62c-35.59,4.03-63.89,32.4-67.82,68.01h-60.81v17.01h60.81c3.94,35.69,32.35,64.1,68.04,68.04v60.6h17.01v-60.6c35.69-3.94,64.1-32.35,68.04-68.04h60.37v-17.01h-60.37ZM220.18,280.2c-33.09,0-60.02-26.92-60.02-60.02s26.92-60.02,60.02-60.02,60.02,26.92,60.02,60.02-26.92,60.02-60.02,60.02Z"/>
    <path d="M175.77,136.36l-39.23-39.23-39.23,39.23,39.23,39.23,39.23-39.23ZM136.54,121.17l15.18,15.18-15.18,15.18-15.18-15.18,15.18-15.18Z"/>
    <path d="M264.95,304l39.23,39.23,39.23-39.23-39.23-39.23-39.23,39.23ZM304.19,319.18l-15.18-15.18,15.18-15.18,15.18,15.18-15.18,15.18Z"/>
    <path d="M342.61,136.36l-39.23-39.23-39.23,39.23,39.23,39.23,39.23-39.23ZM303.38,121.17l15.18,15.18-15.18,15.18-15.18-15.18,15.18-15.18Z"/>
    <path d="M97.31,304l39.23,39.23,39.23-39.23-39.23-39.23-39.23,39.23ZM136.54,319.18l-15.18-15.18,15.18-15.18,15.18,15.18-15.18,15.18Z"/>
  </g>
</svg>
