<svg xmlns="http://www.w3.org/2000/svg" viewBox="0 0 440.4 440.4">
  <g fill="#fff">
    <path d="M261.5,153.3v37.7h-82.4v-37.7h-19.2v134.9h19.2v-40.2h82.4v40.2h19.2v-134.9h-19.2ZM179.1,228.9v-18.7h82.4v18.7h-82.4Z"/>
    <path d="M210.1,376.7v-19h-1.3c-29-2.6-55.9-14-78-33.1l-1-.9-13.7,13.6-13.6-13.6,13.7-13.7-.8-1c-12.4-14.8-21.5-31.5-26.9-50l-.3-1h-24.4v-19.2h20.4l-.2-1.6c-.7-5.6-1-11.2-1-16.8s.4-12.4,1.3-18.6l.2-1.6h-20.6v-19.2h24.9l.3-1c5.6-18,14.6-34.5,27-48.9l.8-1-13.8-13.8,13.6-13.6,13.8,13.8,1-.8c22.2-18.9,49.2-30.1,78.1-32.4h1.3v-19.2h19.2v19.1h1.3c29,2.4,56.1,13.6,78.3,32.6l1,.8,13.3-13.3,13.6,13.6-13.3,13.3.9,1c12.3,14.4,21.3,30.8,26.8,48.7l.3,1h24v19.2h-19.7l.2,1.6c.8,6.2,1.3,12.4,1.3,18.6s-.3,11.2-1,16.8l-.2,1.6h19.5v19.2h-23.5l-.3,1c-5.5,18.9-14.9,36.1-27.9,51.1l-.9,1,13.2,13.2-13.6,13.6-13.3-13.3-1,.8c-22.4,18.9-49.6,30-78.6,32.1h-1.3v19h-19.3l.2.3ZM220.6,102.6c-65,0-117.8,52.8-117.8,117.8s52.9,117.8,117.8,117.8,117.8-52.9,117.8-117.8-52.9-117.8-117.8-117.8h0Z"/>
  </g>
</svg>
